<?xml version="1.0" encoding="UTF-8"?>
<svg xmlns="http://www.w3.org/2000/svg" xmlns:xlink="http://www.w3.org/1999/xlink" width="64px" height="64px" viewBox="0 0 64 64" version="1.1">
<defs>
<linearGradient id="linear0" gradientUnits="userSpaceOnUse" x1="128" y1="0" x2="128" y2="256" gradientTransform="matrix(0.25,0,0,0.25,0,0)">
<stop offset="0" style="stop-color:rgb(96.078431%,82.745098%,34.901961%);stop-opacity:1;"/>
<stop offset="1" style="stop-color:rgb(87.843137%,42.745098%,32.54902%);stop-opacity:1;"/>
</linearGradient>
<linearGradient id="linear1" gradientUnits="userSpaceOnUse" x1="93.8733" y1="-15.8846" x2="-58.6745" y2="93.3386" gradientTransform="matrix(0.25,0,0,0.25,0,0)">
<stop offset="0" style="stop-color:rgb(96.078431%,76.862745%,31.764706%);stop-opacity:1;"/>
<stop offset="1" style="stop-color:rgb(53.333333%,27.45098%,12.54902%);stop-opacity:1;"/>
</linearGradient>
<linearGradient id="linear2" gradientUnits="userSpaceOnUse" x1="62.3809" y1="189.938" x2="62.3809" y2="62.9334" gradientTransform="matrix(0.25,0,0,0.25,0,0)">
<stop offset="0" style="stop-color:rgb(54.901961%,36.862745%,27.058824%);stop-opacity:1;"/>
<stop offset="1" style="stop-color:rgb(76.078431%,45.098039%,17.647059%);stop-opacity:1;"/>
</linearGradient>
<linearGradient id="linear3" gradientUnits="userSpaceOnUse" x1="72.6365" y1="189.936" x2="72.6365" y2="164.801" gradientTransform="matrix(0.25,0,0,0.25,0,0)">
<stop offset="0" style="stop-color:rgb(54.901961%,36.862745%,27.058824%);stop-opacity:1;"/>
<stop offset="1" style="stop-color:rgb(76.078431%,45.098039%,17.647059%);stop-opacity:1;"/>
</linearGradient>
<linearGradient id="linear4" gradientUnits="userSpaceOnUse" x1="199.67" y1="67.4072" x2="161.121" y2="118.237" gradientTransform="matrix(0.25,0,0,0.25,0,0)">
<stop offset="0" style="stop-color:rgb(96.078431%,76.862745%,31.764706%);stop-opacity:1;"/>
<stop offset="1" style="stop-color:rgb(53.333333%,27.45098%,12.54902%);stop-opacity:1;"/>
</linearGradient>
<linearGradient id="linear5" gradientUnits="userSpaceOnUse" x1="187.348" y1="118.539" x2="187.348" y2="89.0773" gradientTransform="matrix(0.25,0,0,0.25,0,0)">
<stop offset="0" style="stop-color:rgb(54.901961%,36.862745%,27.058824%);stop-opacity:1;"/>
<stop offset="1" style="stop-color:rgb(76.078431%,45.098039%,17.647059%);stop-opacity:1;"/>
</linearGradient>
<linearGradient id="linear6" gradientUnits="userSpaceOnUse" x1="181.471" y1="116.33" x2="181.471" y2="90.5618" gradientTransform="matrix(0.25,0,0,0.25,0,0)">
<stop offset="0" style="stop-color:rgb(54.901961%,36.862745%,27.058824%);stop-opacity:1;"/>
<stop offset="1" style="stop-color:rgb(76.078431%,45.098039%,17.647059%);stop-opacity:1;"/>
</linearGradient>
<linearGradient id="linear7" gradientUnits="userSpaceOnUse" x1="151.716" y1="25.8754" x2="40.1938" y2="199.775" gradientTransform="matrix(0.25,0,0,0.25,0,0)">
<stop offset="0" style="stop-color:rgb(96.078431%,76.862745%,31.764706%);stop-opacity:1;"/>
<stop offset="1" style="stop-color:rgb(53.333333%,27.45098%,12.54902%);stop-opacity:1;"/>
</linearGradient>
<linearGradient id="linear8" gradientUnits="userSpaceOnUse" x1="120.885" y1="182.607" x2="120.885" y2="113.818" gradientTransform="matrix(0.25,0,0,0.25,0,0)">
<stop offset="0" style="stop-color:rgb(54.901961%,36.862745%,27.058824%);stop-opacity:1;"/>
<stop offset="1" style="stop-color:rgb(76.078431%,45.098039%,17.647059%);stop-opacity:1;"/>
</linearGradient>
<linearGradient id="linear9" gradientUnits="userSpaceOnUse" x1="139.345" y1="172.492" x2="139.345" y2="85.2225" gradientTransform="matrix(0.25,0,0,0.25,0,0)">
<stop offset="0" style="stop-color:rgb(54.901961%,36.862745%,27.058824%);stop-opacity:1;"/>
<stop offset="1" style="stop-color:rgb(76.078431%,45.098039%,17.647059%);stop-opacity:1;"/>
</linearGradient>
<linearGradient id="linear10" gradientUnits="userSpaceOnUse" x1="97.8798" y1="182.607" x2="97.8798" y2="125.247" gradientTransform="matrix(0.25,0,0,0.25,0,0)">
<stop offset="0" style="stop-color:rgb(54.901961%,36.862745%,27.058824%);stop-opacity:1;"/>
<stop offset="1" style="stop-color:rgb(76.078431%,45.098039%,17.647059%);stop-opacity:1;"/>
</linearGradient>
<linearGradient id="linear11" gradientUnits="userSpaceOnUse" x1="215.806" y1="50.2612" x2="125.745" y2="179.136" gradientTransform="matrix(0.25,0,0,0.25,0,0)">
<stop offset="0" style="stop-color:rgb(96.078431%,76.862745%,31.764706%);stop-opacity:1;"/>
<stop offset="1" style="stop-color:rgb(53.333333%,27.45098%,12.54902%);stop-opacity:1;"/>
</linearGradient>
<linearGradient id="linear12" gradientUnits="userSpaceOnUse" x1="183.734" y1="172.758" x2="183.734" y2="96.6155" gradientTransform="matrix(0.25,0,0,0.25,0,0)">
<stop offset="0" style="stop-color:rgb(54.901961%,36.862745%,27.058824%);stop-opacity:1;"/>
<stop offset="1" style="stop-color:rgb(76.078431%,45.098039%,17.647059%);stop-opacity:1;"/>
</linearGradient>
<linearGradient id="linear13" gradientUnits="userSpaceOnUse" x1="203.555" y1="172.758" x2="203.555" y2="103.649" gradientTransform="matrix(0.25,0,0,0.25,0,0)">
<stop offset="0" style="stop-color:rgb(82.352941%,61.960784%,30.980392%);stop-opacity:1;"/>
<stop offset="1" style="stop-color:rgb(80.784314%,58.431373%,15.686275%);stop-opacity:1;"/>
</linearGradient>
<linearGradient id="linear14" gradientUnits="userSpaceOnUse" x1="172.398" y1="123.65" x2="172.398" y2="96.6146" gradientTransform="matrix(0.25,0,0,0.25,0,0)">
<stop offset="0" style="stop-color:rgb(54.901961%,36.862745%,27.058824%);stop-opacity:1;"/>
<stop offset="1" style="stop-color:rgb(76.078431%,45.098039%,17.647059%);stop-opacity:1;"/>
</linearGradient>
<linearGradient id="linear15" gradientUnits="userSpaceOnUse" x1="181.251" y1="171.594" x2="181.251" y2="96.612" gradientTransform="matrix(0.25,0,0,0.25,0,0)">
<stop offset="0" style="stop-color:rgb(54.901961%,36.862745%,27.058824%);stop-opacity:1;"/>
<stop offset="1" style="stop-color:rgb(76.078431%,45.098039%,17.647059%);stop-opacity:1;"/>
</linearGradient>
<linearGradient id="linear16" gradientUnits="userSpaceOnUse" x1="205.944" y1="30.8971" x2="101.64" y2="185.182" gradientTransform="matrix(0.25,0,0,0.25,0,0)">
<stop offset="0" style="stop-color:rgb(96.078431%,76.862745%,31.764706%);stop-opacity:1;"/>
<stop offset="1" style="stop-color:rgb(53.333333%,27.45098%,12.54902%);stop-opacity:1;"/>
</linearGradient>
<linearGradient id="linear17" gradientUnits="userSpaceOnUse" x1="175.214" y1="167.588" x2="175.214" y2="88.1705" gradientTransform="matrix(0.25,0,0,0.25,0,0)">
<stop offset="0" style="stop-color:rgb(82.352941%,61.960784%,30.980392%);stop-opacity:1;"/>
<stop offset="1" style="stop-color:rgb(80.784314%,58.431373%,15.686275%);stop-opacity:1;"/>
</linearGradient>
<linearGradient id="linear18" gradientUnits="userSpaceOnUse" x1="167.131" y1="174.119" x2="167.131" y2="85.2241" gradientTransform="matrix(0.25,0,0,0.25,0,0)">
<stop offset="0" style="stop-color:rgb(82.352941%,61.960784%,30.980392%);stop-opacity:1;"/>
<stop offset="1" style="stop-color:rgb(80.784314%,58.431373%,15.686275%);stop-opacity:1;"/>
</linearGradient>
<linearGradient id="linear19" gradientUnits="userSpaceOnUse" x1="162.281" y1="116.99" x2="162.281" y2="93.9359" gradientTransform="matrix(0.25,0,0,0.25,0,0)">
<stop offset="0" style="stop-color:rgb(54.901961%,36.862745%,27.058824%);stop-opacity:1;"/>
<stop offset="1" style="stop-color:rgb(76.078431%,45.098039%,17.647059%);stop-opacity:1;"/>
</linearGradient>
<linearGradient id="linear20" gradientUnits="userSpaceOnUse" x1="145.774" y1="88.3728" x2="81.2054" y2="224.24" gradientTransform="matrix(0.25,0,0,0.25,0,0)">
<stop offset="0" style="stop-color:rgb(96.078431%,76.862745%,31.764706%);stop-opacity:1;"/>
<stop offset="1" style="stop-color:rgb(53.333333%,27.45098%,12.54902%);stop-opacity:1;"/>
</linearGradient>
<linearGradient id="linear21" gradientUnits="userSpaceOnUse" x1="105.652" y1="194.738" x2="105.652" y2="171.793" gradientTransform="matrix(0.25,0,0,0.25,0,0)">
<stop offset="0" style="stop-color:rgb(54.901961%,36.862745%,27.058824%);stop-opacity:1;"/>
<stop offset="1" style="stop-color:rgb(76.078431%,45.098039%,17.647059%);stop-opacity:1;"/>
</linearGradient>
<linearGradient id="linear22" gradientUnits="userSpaceOnUse" x1="96.374" y1="182.607" x2="96.374" y2="128.622" gradientTransform="matrix(0.25,0,0,0.25,0,0)">
<stop offset="0" style="stop-color:rgb(82.352941%,61.960784%,30.980392%);stop-opacity:1;"/>
<stop offset="1" style="stop-color:rgb(80.784314%,58.431373%,15.686275%);stop-opacity:1;"/>
</linearGradient>
<linearGradient id="linear23" gradientUnits="userSpaceOnUse" x1="96.3739" y1="194.738" x2="96.3739" y2="128.623" gradientTransform="matrix(0.25,0,0,0.25,0,0)">
<stop offset="0" style="stop-color:rgb(82.352941%,61.960784%,30.980392%);stop-opacity:1;"/>
<stop offset="1" style="stop-color:rgb(80.784314%,58.431373%,15.686275%);stop-opacity:1;"/>
</linearGradient>
<linearGradient id="linear24" gradientUnits="userSpaceOnUse" x1="187.39" y1="75.0383" x2="153.091" y2="128.549" gradientTransform="matrix(0.25,0,0,0.25,0,0)">
<stop offset="0" style="stop-color:rgb(96.078431%,76.862745%,31.764706%);stop-opacity:1;"/>
<stop offset="1" style="stop-color:rgb(53.333333%,27.45098%,12.54902%);stop-opacity:1;"/>
</linearGradient>
<linearGradient id="linear25" gradientUnits="userSpaceOnUse" x1="173.643" y1="123.137" x2="173.643" y2="93.2829" gradientTransform="matrix(0.25,0,0,0.25,0,0)">
<stop offset="0" style="stop-color:rgb(82.352941%,61.960784%,30.980392%);stop-opacity:1;"/>
<stop offset="1" style="stop-color:rgb(80.784314%,58.431373%,15.686275%);stop-opacity:1;"/>
</linearGradient>
<linearGradient id="linear26" gradientUnits="userSpaceOnUse" x1="173.643" y1="123.252" x2="173.643" y2="105.857" gradientTransform="matrix(0.25,0,0,0.25,0,0)">
<stop offset="0" style="stop-color:rgb(54.901961%,36.862745%,27.058824%);stop-opacity:1;"/>
<stop offset="1" style="stop-color:rgb(76.078431%,45.098039%,17.647059%);stop-opacity:1;"/>
</linearGradient>
<linearGradient id="linear27" gradientUnits="userSpaceOnUse" x1="194.819" y1="126.945" x2="193.34" y2="142.741" gradientTransform="matrix(0.25,0,0,0.25,0,0)">
<stop offset="0" style="stop-color:rgb(0%,0%,0%);stop-opacity:1;"/>
<stop offset="1" style="stop-color:rgb(36.862745%,32.941176%,0%);stop-opacity:1;"/>
</linearGradient>
<linearGradient id="linear28" gradientUnits="userSpaceOnUse" x1="195.626" y1="126.205" x2="194.146" y2="142.001" gradientTransform="matrix(0.25,0,0,0.25,0,0)">
<stop offset="0" style="stop-color:rgb(0%,0%,0%);stop-opacity:1;"/>
<stop offset="1" style="stop-color:rgb(36.862745%,32.941176%,0%);stop-opacity:1;"/>
</linearGradient>
</defs>
<g id="surface1">
<rect x="0" y="0" width="64" height="64" style="fill:url(#linear0);stroke:none;"/>
<path style=" stroke:none;fill-rule:nonzero;fill:url(#linear1);" d="M 9.75 16.457031 C 14.441406 15.105469 19.570312 16.300781 17.335938 21.894531 C 15.664062 26.078125 10.804688 32.289062 10.1875 38.113281 C 9.472656 44.816406 14.125 48.09375 19.425781 47.390625 C 21.433594 47.121094 22.371094 44.914062 23.574219 42.90625 C 24.46875 41.410156 21.023438 39.882812 18.835938 40.757812 C 17.691406 43.636719 12.746094 44.296875 12.65625 39.175781 C 12.570312 34.414062 16.644531 27.550781 18.613281 23.261719 C 20.960938 18.144531 18.15625 15.5 14.164062 15.5 C 12.78125 15.5 11.253906 15.816406 9.75 16.457031 Z M 9.75 16.457031 "/>
<path style=" stroke:none;fill-rule:nonzero;fill:url(#linear2);" d="M 9.75 16.460938 C 14.441406 15.105469 19.570312 16.300781 17.335938 21.898438 C 15.664062 26.078125 10.804688 32.292969 10.1875 38.113281 C 9.472656 44.816406 14.125 48.097656 19.425781 47.390625 C 20.246094 47.28125 20.886719 46.847656 21.441406 46.238281 C 20.144531 45.886719 18.769531 45.625 17.335938 45.480469 C 11.519531 44.898438 10.558594 40.453125 11.660156 35.871094 C 12.855469 30.886719 17.230469 25.34375 18.421875 21.265625 C 20.101562 15.503906 13.597656 14.929688 9.75 16.460938 Z M 9.75 16.460938 "/>
<path style=" stroke:none;fill-rule:nonzero;fill:url(#linear3);" d="M 18.617188 41.199219 C 17.949219 42.351562 16.640625 43.042969 15.421875 42.972656 C 15.421875 42.972656 16.609375 46.523438 12.992188 45.894531 C 14.695312 47.195312 16.992188 47.714844 19.425781 47.390625 C 21.292969 47.140625 22.234375 45.210938 23.328125 43.324219 C 21.808594 42.351562 20.085938 41.640625 18.617188 41.199219 Z M 18.617188 41.199219 "/>
<path style=" stroke:none;fill-rule:nonzero;fill:url(#linear4);" d="M 44.375 27.164062 C 45.242188 28.410156 46.964844 29.417969 49.941406 29.632812 C 50.132812 27.265625 50.175781 24.378906 48.367188 22.554688 C 47.769531 21.949219 47.109375 21.6875 46.476562 21.6875 C 44.371094 21.6875 42.585938 24.585938 44.375 27.164062 Z M 44.375 27.164062 "/>
<path style=" stroke:none;fill-rule:nonzero;fill:url(#linear5);" d="M 49.941406 29.632812 C 46.964844 29.417969 45.242188 28.410156 44.375 27.164062 C 43.074219 25.289062 43.664062 23.242188 44.894531 22.269531 C 44.898438 22.285156 45.84375 25.238281 49.960938 26.3125 C 50.085938 27.429688 50.027344 28.582031 49.941406 29.632812 Z M 49.941406 29.632812 "/>
<path style=" stroke:none;fill-rule:nonzero;fill:url(#linear6);" d="M 47.09375 29.082031 C 45.789062 28.625 44.917969 27.941406 44.375 27.164062 C 43.222656 25.5 43.554688 23.707031 44.5 22.640625 C 46.0625 23.746094 47.117188 26.046875 47.09375 29.082031 Z M 47.09375 29.082031 "/>
<path style=" stroke:none;fill-rule:nonzero;fill:url(#linear7);" d="M 15.179688 37.796875 C 15.179688 39.730469 15.515625 41.582031 16.125 43.304688 L 16.222656 43.300781 C 15.890625 42.40625 18.683594 43.125 18.683594 40.335938 C 18.683594 37.546875 18.167969 35.246094 22.730469 35.246094 C 27.296875 35.246094 32.140625 35.855469 32.140625 40.421875 L 32.140625 45.652344 C 34.230469 44.183594 36.320312 43.238281 38.304688 42.65625 C 38.296875 42.652344 38.355469 42.53125 38.34375 42.523438 C 30.445312 38.214844 35.425781 24.507812 32.222656 21.304688 C 32.042969 21.300781 31.859375 21.296875 31.675781 21.296875 C 22.566406 21.296875 15.179688 28.683594 15.179688 37.796875 Z M 15.179688 37.796875 "/>
<path style=" stroke:none;fill-rule:nonzero;fill:url(#linear8);" d="M 32.140625 40.421875 C 32.140625 35.855469 27.296875 35.246094 22.730469 35.246094 C 22.507812 35.246094 22.296875 35.253906 22.097656 35.265625 C 23.71875 32.304688 26.976562 29.078125 33.484375 28.453125 C 33.5 33.601562 33.460938 39.859375 38.34375 42.523438 C 38.355469 42.53125 38.296875 42.652344 38.304688 42.65625 C 36.320312 43.238281 34.230469 44.183594 32.140625 45.652344 Z M 32.140625 40.421875 "/>
<path style=" stroke:none;fill-rule:nonzero;fill:url(#linear9);" d="M 32.222656 21.304688 C 35.425781 24.507812 30.445312 38.214844 38.34375 42.523438 C 38.355469 42.53125 38.296875 42.652344 38.304688 42.65625 C 37.84375 42.792969 37.378906 42.945312 36.910156 43.121094 C 28.289062 35.839844 32.222656 21.304688 32.222656 21.304688 Z M 32.222656 21.304688 "/>
<path style=" stroke:none;fill-rule:nonzero;fill:url(#linear10);" d="M 32.140625 40.421875 C 32.140625 35.855469 27.296875 35.246094 22.730469 35.246094 C 18.167969 35.246094 18.683594 37.546875 18.683594 40.335938 C 18.683594 43.125 15.890625 42.40625 16.222656 43.300781 L 16.144531 43.304688 C 16.074219 43.132812 16.007812 42.957031 15.949219 42.78125 C 15.890625 42.597656 15.835938 42.414062 15.785156 42.226562 C 15.625 41.613281 15.527344 40.96875 15.507812 40.308594 C 15.347656 35.503906 19.113281 31.476562 23.917969 31.320312 C 32.613281 31.03125 34.214844 39.84375 33.144531 44.984375 C 32.808594 45.195312 32.476562 45.417969 32.140625 45.652344 Z M 32.140625 40.421875 "/>
<path style=" stroke:none;fill-rule:nonzero;fill:url(#linear11);" d="M 39.132812 27.914062 C 38.460938 29.054688 38.070312 30.191406 37.765625 31.679688 C 36.847656 36.136719 40.867188 39.21875 45.984375 39.886719 C 46.964844 40.011719 47.761719 39.96875 48.316406 39.375 C 48.746094 38.910156 48.613281 38.660156 49.269531 38.476562 C 50.40625 38.15625 51.429688 38.996094 51.566406 39.832031 C 51.695312 40.601562 51.078125 41.371094 49.125 41.246094 C 48.59375 41.210938 48.121094 41.140625 47.59375 41.195312 C 47.253906 41.226562 47.019531 41.882812 46.675781 42 C 48.78125 42.8125 52.210938 43.355469 54.234375 43.144531 C 54.460938 35.671875 52.433594 26.582031 44.308594 24.585938 C 43.296875 24.339844 42.183594 24.1875 40.960938 24.152344 C 41.433594 24.476562 38.695312 27.546875 39.132812 27.914062 Z M 39.132812 27.914062 "/>
<path style=" stroke:none;fill-rule:nonzero;fill:url(#linear12);" d="M 48.453125 39.210938 C 48.414062 39.261719 48.371094 39.316406 48.316406 39.375 C 47.761719 39.96875 46.964844 40.011719 45.984375 39.886719 C 40.867188 39.21875 36.847656 36.136719 37.765625 31.679688 C 38.070312 30.191406 38.460938 29.054688 39.132812 27.914062 C 38.695312 27.546875 41.433594 24.476562 40.960938 24.152344 C 41.628906 24.171875 42.261719 24.226562 42.867188 24.3125 C 43.199219 25.484375 43.375 26.21875 43.375 26.21875 L 46.976562 30.785156 C 46.976562 30.785156 45.503906 35.320312 48.453125 39.210938 Z M 54.234375 43.144531 C 52.210938 43.355469 48.78125 42.8125 46.675781 42 C 47.019531 41.882812 47.253906 41.226562 47.59375 41.195312 C 48.121094 41.140625 48.59375 41.210938 49.125 41.246094 C 49.660156 41.28125 50.09375 41.246094 50.441406 41.164062 C 51.4375 41.910156 52.683594 42.585938 54.234375 43.144531 Z M 54.234375 43.144531 "/>
<path style=" stroke:none;fill-rule:nonzero;fill:url(#linear13);" d="M 47.527344 25.914062 C 52.441406 28.910156 54.101562 35.320312 54.238281 41.21875 C 54.253906 41.859375 54.253906 42.5 54.234375 43.144531 C 53.171875 43.253906 51.722656 43.15625 50.28125 42.921875 C 50.554688 42.265625 50.78125 41.613281 50.964844 40.976562 C 51.160156 40.867188 51.308594 40.738281 51.40625 40.59375 C 51.675781 40.207031 51.617188 39.710938 51.355469 39.292969 C 52.582031 32.441406 49.121094 27.175781 47.527344 25.914062 Z M 47.527344 25.914062 "/>
<path style=" stroke:none;fill-rule:nonzero;fill:url(#linear14);" d="M 44.308594 24.585938 C 45.085938 24.777344 45.804688 25.035156 46.472656 25.347656 C 47.03125 26.800781 47.25 28.65625 46.976562 30.785156 C 43.402344 31.363281 40.082031 29.921875 39.105469 27.664062 C 39.324219 26.828125 41.375 24.4375 40.960938 24.152344 C 42.183594 24.1875 43.296875 24.339844 44.308594 24.585938 Z M 44.308594 24.585938 "/>
<path style=" stroke:none;fill-rule:nonzero;fill:url(#linear15);" d="M 46.675781 41.996094 C 46.683594 41.996094 46.6875 41.996094 46.695312 41.992188 C 46.699219 41.988281 46.703125 41.988281 46.710938 41.984375 C 46.984375 41.863281 47.289062 41.382812 47.566406 41.195312 C 47.574219 41.195312 47.585938 41.195312 47.59375 41.191406 C 48.121094 41.136719 48.59375 41.210938 49.125 41.246094 C 50.402344 41.328125 51.109375 41.023438 51.40625 40.59375 C 51.335938 40.589844 51.265625 40.585938 51.191406 40.582031 C 52.027344 39.648438 50.730469 37.9375 49.1875 38.375 C 48.53125 38.558594 48.832031 38.457031 48.398438 38.921875 C 47.847656 39.515625 47.015625 40.171875 46.035156 40.042969 C 40.917969 39.378906 36.847656 36.132812 37.765625 31.679688 C 38.070312 30.191406 38.460938 29.050781 39.132812 27.914062 C 38.695312 27.542969 41.433594 24.476562 40.960938 24.152344 C 41.710938 24.175781 42.421875 24.238281 43.09375 24.34375 L 43.929688 25.050781 L 43.203125 25.921875 C 42.539062 26.71875 40.917969 27.382812 40.574219 28.359375 C 39.683594 32.140625 40.886719 35.839844 43.167969 37.550781 C 44.167969 38.296875 45.269531 38.570312 46.046875 38.554688 C 47.632812 38.519531 47.820312 36.671875 49.378906 36.234375 C 51.175781 35.726562 52.574219 37.300781 52.90625 38.925781 C 53.0625 39.671875 53.011719 40.472656 52.683594 41.171875 C 52.179688 42.242188 51.214844 42.761719 50.136719 42.898438 C 48.882812 42.6875 47.640625 42.371094 46.675781 41.996094 Z M 46.675781 41.996094 "/>
<path style=" stroke:none;fill-rule:nonzero;fill:url(#linear16);" d="M 40.910156 43.574219 C 43.292969 43.855469 45.203125 42.578125 46.675781 42 C 47.019531 41.882812 47.355469 41.816406 47.695312 41.78125 C 48.21875 41.726562 48.746094 41.75 49.277344 41.785156 C 51.253906 41.910156 51.925781 40.722656 51.839844 39.539062 C 51.753906 38.277344 50.8125 37.015625 49.691406 37.332031 C 49.035156 37.519531 48.597656 38 48.164062 38.464844 C 47.609375 39.0625 47.066406 39.625 46.082031 39.5 C 39.292969 38.617188 38.410156 29.890625 42.324219 25.191406 C 41.890625 24.824219 41.433594 24.476562 40.960938 24.152344 C 40.847656 24.074219 40.730469 24 40.617188 23.925781 C 38.183594 22.355469 35.308594 21.40625 32.222656 21.304688 C 30.824219 27.722656 31.902344 42.523438 40.910156 43.574219 Z M 40.910156 43.574219 "/>
<path style=" stroke:none;fill-rule:nonzero;fill:url(#linear17);" d="M 36.597656 22.042969 C 38.03125 22.488281 39.378906 23.125 40.617188 23.925781 C 40.730469 24 40.847656 24.074219 40.960938 24.152344 C 41.433594 24.476562 41.890625 24.820312 42.324219 25.191406 C 38.410156 29.886719 39.292969 38.617188 46.082031 39.496094 C 47.066406 39.625 47.609375 39.0625 48.164062 38.464844 C 48.597656 38 49.035156 37.519531 49.691406 37.332031 C 51.867188 36.71875 53.359375 42.039062 49.277344 41.785156 C 48.746094 41.75 48.21875 41.726562 47.695312 41.78125 C 47.636719 41.785156 47.582031 41.792969 47.523438 41.800781 C 47.433594 41.792969 47.347656 41.792969 47.265625 41.800781 C 35.441406 43.140625 34.601562 30.117188 36.597656 22.042969 Z M 36.597656 22.042969 "/>
<path style=" stroke:none;fill-rule:nonzero;fill:url(#linear18);" d="M 42.054688 24.964844 C 42.144531 25.039062 42.234375 25.117188 42.324219 25.191406 C 38.410156 29.890625 39.292969 38.617188 46.082031 39.5 C 47.066406 39.625 47.609375 39.0625 48.164062 38.46875 C 48.597656 38 49.035156 37.519531 49.691406 37.332031 C 51.867188 36.71875 53.359375 42.042969 49.277344 41.785156 C 48.746094 41.75 48.21875 41.726562 47.695312 41.78125 C 47.355469 41.816406 47.019531 41.882812 46.675781 42 C 47.492188 41.707031 47.9375 41.5625 49.285156 41.648438 C 50.171875 41.707031 51.117188 41.503906 51.527344 40.628906 C 51.734375 40.183594 51.753906 39.660156 51.65625 39.179688 C 51.574219 38.785156 51.40625 38.386719 51.160156 38.0625 C 50.945312 37.78125 50.65625 37.539062 50.308594 37.453125 C 50.117188 37.402344 49.921875 37.410156 49.726562 37.460938 C 49.105469 37.636719 48.6875 38.105469 48.261719 38.558594 C 47.984375 38.859375 47.695312 39.167969 47.339844 39.378906 C 46.941406 39.617188 46.523438 39.691406 46.066406 39.632812 C 44.273438 39.398438 42.707031 38.601562 41.574219 37.175781 C 40.617188 35.972656 40.09375 34.476562 39.925781 32.957031 C 39.839844 32.164062 39.847656 31.359375 39.941406 30.566406 C 40.035156 29.761719 40.21875 28.960938 40.488281 28.195312 C 40.867188 27.121094 41.417969 26.097656 42.136719 25.210938 C 42.085938 25.167969 42.0625 25.082031 42.054688 24.964844 Z M 40.582031 43.53125 C 31.875 42.160156 30.84375 27.644531 32.222656 21.304688 C 31.964844 22.539062 31.875 24.878906 31.855469 26.179688 C 31.824219 28.121094 31.960938 30.089844 32.28125 32.003906 C 33.039062 36.5625 35.40625 42.6875 40.582031 43.53125 Z M 40.582031 43.53125 "/>
<path style=" stroke:none;fill-rule:nonzero;fill:url(#linear19);" d="M 39.890625 23.484375 C 40.136719 23.625 40.378906 23.773438 40.617188 23.925781 C 40.730469 24 40.847656 24.078125 40.960938 24.152344 C 41.433594 24.476562 41.890625 24.824219 42.324219 25.191406 C 41.355469 26.355469 40.679688 27.769531 40.316406 29.246094 C 38.667969 27.847656 38.167969 25.722656 39.890625 23.484375 Z M 39.890625 23.484375 "/>
<path style=" stroke:none;fill-rule:nonzero;fill:url(#linear20);" d="M 15.609375 40.421875 C 15.609375 44.917969 19.199219 48.574219 23.667969 48.683594 L 36.820312 48.683594 C 36.820312 48.683594 37.082031 45.71875 33.894531 45.652344 C 33.859375 45.652344 32.175781 45.652344 32.140625 45.652344 C 33.414062 40.851562 32.269531 32.15625 23.875 32.15625 C 19.308594 32.15625 15.609375 35.855469 15.609375 40.421875 Z M 15.609375 40.421875 "/>
<path style=" stroke:none;fill-rule:nonzero;fill:url(#linear21);" d="M 36.726562 47.703125 C 36.859375 48.246094 36.820312 48.683594 36.820312 48.683594 L 23.667969 48.683594 C 20.074219 48.597656 17.050781 46.214844 16 42.949219 C 16 42.949219 18.21875 47.171875 23.765625 47.421875 Z M 36.726562 47.703125 "/>
<path style=" stroke:none;fill-rule:nonzero;fill:url(#linear22);" d="M 23.875 32.15625 C 32.269531 32.15625 33.414062 40.851562 32.140625 45.652344 C 32.089844 41.714844 30.417969 39.117188 28.171875 37.699219 C 27.738281 38.53125 25.890625 39.15625 23.675781 39.15625 C 21.375 39.15625 19.46875 38.480469 19.132812 37.601562 C 17.367188 38.695312 16.109375 40.507812 16 42.949219 C 15.746094 42.152344 15.609375 41.304688 15.609375 40.421875 C 15.609375 35.855469 19.308594 32.15625 23.875 32.15625 Z M 23.875 32.15625 "/>
<path style=" stroke:none;fill-rule:nonzero;fill:url(#linear23);" d="M 23.875 32.15625 C 32.269531 32.15625 33.414062 40.851562 32.140625 45.652344 C 32.546875 43.691406 32.558594 41.117188 32.136719 39.164062 C 31.859375 37.878906 31.375 36.621094 30.621094 35.539062 C 29.023438 33.242188 26.617188 32.292969 23.875 32.292969 C 19.382812 32.292969 15.746094 35.933594 15.746094 40.421875 C 15.746094 44.832031 19.261719 48.578125 23.667969 48.683594 C 19.199219 48.574219 15.609375 44.917969 15.609375 40.421875 C 15.609375 35.855469 19.308594 32.15625 23.875 32.15625 Z M 23.875 32.15625 "/>
<path style=" stroke:none;fill-rule:nonzero;fill:url(#linear24);" d="M 40.921875 29.050781 C 41.949219 30.164062 43.996094 30.976562 46.976562 30.785156 C 46.816406 28.621094 46.46875 26.292969 45.035156 24.574219 C 44.292969 23.6875 43.476562 23.320312 42.714844 23.320312 C 40.414062 23.320312 38.605469 26.644531 40.921875 29.050781 Z M 40.921875 29.050781 "/>
<path style=" stroke:none;fill-rule:nonzero;fill:url(#linear25);" d="M 39.863281 26.878906 C 39.582031 24.167969 42.695312 21.773438 45.035156 24.574219 C 46.46875 26.292969 46.816406 28.621094 46.976562 30.785156 C 45.484375 24.4375 40.234375 23.144531 39.863281 26.878906 Z M 39.863281 26.878906 "/>
<path style=" stroke:none;fill-rule:nonzero;fill:url(#linear26);" d="M 46.976562 30.785156 C 43.996094 30.976562 41.949219 30.164062 40.921875 29.050781 C 40.140625 28.238281 39.828125 27.324219 39.847656 26.464844 C 41.070312 29.789062 46.742188 30.152344 46.519531 27.652344 C 46.78125 28.679688 46.898438 29.75 46.976562 30.785156 Z M 46.976562 30.785156 "/>
<path style=" stroke:none;fill-rule:nonzero;fill:url(#linear27);" d="M 48.503906 32.921875 C 47.96875 32.921875 47.535156 33.355469 47.535156 33.890625 C 47.535156 34.421875 47.96875 34.855469 48.503906 34.855469 C 49.035156 34.855469 49.46875 34.421875 49.46875 33.890625 C 49.46875 33.355469 49.035156 32.921875 48.503906 32.921875 Z M 48.503906 32.921875 "/>
<path style=" stroke:none;fill-rule:nonzero;fill:url(#linear28);" d="M 47.738281 33.703125 C 47.738281 34.238281 48.171875 34.671875 48.703125 34.671875 C 49.238281 34.671875 49.671875 34.238281 49.671875 33.703125 C 49.671875 33.171875 49.238281 32.738281 48.703125 32.738281 C 48.171875 32.738281 47.738281 33.171875 47.738281 33.703125 Z M 47.738281 33.703125 "/>
<path style=" stroke:none;fill-rule:nonzero;fill:rgb(100%,100%,100%);fill-opacity:1;" d="M 47.96875 32.910156 C 48.148438 32.910156 48.292969 33.058594 48.292969 33.238281 C 48.292969 33.417969 48.148438 33.5625 47.96875 33.5625 C 47.789062 33.5625 47.640625 33.417969 47.640625 33.238281 C 47.640625 33.058594 47.789062 32.910156 47.96875 32.910156 Z M 47.96875 32.910156 "/>
</g>
</svg>
